<svg width="45" height="45" viewBox="0 0 45 45" fill="none" xmlns="http://www.w3.org/2000/svg">
<path d="M25.0896 36.7682C24.8391 37.2 24.4796 37.5584 24.047 37.8075C23.6145 38.0567 23.1241 38.1878 22.6249 38.1878C22.1258 38.1878 21.6354 38.0567 21.2028 37.8075C20.7703 37.5584 20.4108 37.2 20.1603 36.7682M31.1727 18.248C31.1727 15.981 30.2721 13.8068 28.6691 12.2038C27.0661 10.6008 24.8919 9.7002 22.6249 9.7002C20.3579 9.7002 18.1837 10.6008 16.5807 12.2038C14.9777 13.8068 14.0771 15.981 14.0771 18.248C14.0771 28.2204 9.80322 31.0697 9.80322 31.0697H35.4466C35.4466 31.0697 31.1727 28.2204 31.1727 18.248Z" stroke="#F8FAFC" stroke-width="2" stroke-linecap="round" stroke-linejoin="round"/>
</svg>
