<svg width="45" height="45" viewBox="0 0 45 45" fill="none" xmlns="http://www.w3.org/2000/svg">
<path d="M7.27954 36.7665C7.27954 36.7665 11.7048 30.8548 22.6239 30.8548C33.543 30.8548 37.9702 36.7665 37.9702 36.7665M22.6239 23.5846C24.2035 23.5846 25.7184 22.928 26.8353 21.7594C27.9523 20.5907 28.5798 19.0057 28.5798 17.353C28.5798 15.7002 27.9523 14.1152 26.8353 12.9465C25.7184 11.7779 24.2035 11.1213 22.6239 11.1213C21.0443 11.1213 19.5294 11.7779 18.4124 12.9465C17.2955 14.1152 16.668 15.7002 16.668 17.353C16.668 19.0057 17.2955 20.5907 18.4124 21.7594C19.5294 22.928 21.0443 23.5846 22.6239 23.5846Z" stroke="#F8FAFC" stroke-width="2" stroke-linecap="round" stroke-linejoin="round"/>
</svg>
